<?xml version="1.0" encoding="utf-8"?>
<!-- Generator: Adobe Illustrator 25.0.1, SVG Export Plug-In . SVG Version: 6.00 Build 0)  -->
<svg version="1.1" id="Layer_1" xmlns="http://www.w3.org/2000/svg" xmlns:xlink="http://www.w3.org/1999/xlink" x="0px" y="0px"
	 viewBox="0 0 929 508" style="enable-background:new 0 0 929 508;" xml:space="preserve">
<style type="text/css">
	.st0{fill:#E2DDDC;}
	.st1{fill:#F6F6F6;}
</style>
<path class="st0" d="M1482.7,1120.3c2.1-13.6,6.8-26.2,9.5-39.5c0.1-0.6,0.6-1.2,1-1.5c8.8-6,17.2-13,26.8-17.1
	c0.1,0.9,0.3,1.8,0.4,2.8c-9.4,3.3-17,10.6-25.6,15.9c-2.1,1.3-2,5.2-2.4,8c-1.7,10.8-6.4,20.1-7.5,31.1
	C1484.1,1120.1,1483.4,1120.2,1482.7,1120.3z"/>
<path class="st0" d="M1522.1,1075.9c-3.5,0.1-4.8,3.3-6.3,6.4c-1.2,2.4-1.5,5.6-4.1,6.6c1.2-7.4,3.6-13.6,10-15.8
	C1521.8,1074.1,1521.9,1075,1522.1,1075.9z"/>
<path class="st0" d="M1526.3,1103.7c-3,1.7-3.3,6.8-6.7,8.2c0.2-5.3,2.9-8.5,6.2-10.9C1526,1101.8,1526.2,1102.7,1526.3,1103.7z"/>
<path class="st0" d="M1500.8,1106.1c-1.6,4-3.3,8.1-4.9,12.1c-0.4,0.1-0.7,0.1-1.1,0.2C1494.9,1112.8,1495.6,1107.7,1500.8,1106.1z"
	/>
<path class="st0" d="M1519.7,1111.7c0.6,1.3-0.5,2-0.7,3c-0.7,0.1-1.5,0.2-2.2,0.3C1517.3,1113.3,1517.5,1111.2,1519.7,1111.7z"/>
<path class="st0" d="M1511.7,1088.9c-1.5,7.9-6.3,12.6-10.9,17.3c-0.2-0.1-0.3-0.2-0.5-0.3C1503.3,1099.4,1507.4,1094,1511.7,1088.9
	z"/>
<g>
	<path d="M260,228.9c52.4-9.1,101.9-25.4,150.8-44.1c54.4-20.8,107.6-44.5,161.9-65.5c44.7-17.3,90.1-32.7,137.1-42.7
		c42.6-9,85.6-12.9,129.1-9.9c6.8,0.5,12.5,2.5,15.5,9c3.3,7.1,1.5,13.6-3.1,19.6c-14.3,18.6-29.9,36.2-45.9,53.4
		c-25.5,27.4-51.9,54.1-75.9,82.9c-3,3.6-2.8,5.5,0.3,8.9c27,29,54.8,57.3,79.7,88.2c8.5,10.5,16.4,21.4,24.1,32.5
		c3.5,5.1,4.5,10.3,1.5,15.9c-3,5.8-7.8,8.7-14.5,8.9c-49.6,1.4-98.9-2.3-148.1-7.8c-62.2-7-124.2-16.1-186.5-22.1
		c-36.9-3.6-73.9-2.4-110.9-2.1c-28.7,0.3-57.3-0.2-85.6-6.1c-4.4-0.9-8.8-1.9-13.1-3.3c-3.2-1-3.6,0-3.5,2.8
		c0.2,23.3-0.9,46.6-3.1,69.9c-0.5,5.6-1,11.3-2,16.9c-2.3,12.6-15.3,17.6-24.6,8.9c-40.2-37.8-88.6-62.1-137.9-85.1
		c-12.7-5.9-25.3-11.9-37.9-17.9c-10.4-4.9-13.4-16.4-6.8-25.8c46.4-67.4,100.1-128.8,157.3-187.2c5.4-5.5,10.8-10.9,16.1-16.4
		c5-5.1,10.8-6.5,17.3-3.9c6.4,2.5,9.5,7.3,9.7,14.3c1.1,32,2,63.9-0.2,95.9C260.7,220.8,260.4,224.6,260,228.9z"/>
	<path class="st1" d="M809.3,97.3c-7.5,8.7-14.3,16.8-21.2,24.8c-24.3,28.5-48.5,57.1-68.8,88.8c-1.2,1.8-2.4,3.6-3.4,5.5
		c-1.6,3.1-3.6,4.8-7.4,5.7c-7.9,1.7-10.3,9.9-5.5,17c12.9,19,27.3,37,41.8,54.8c15.1,18.6,30.2,37.3,45.2,55.9c1,1.3,1.9,2.6,3,4
		c-1.7,1.4-3.4,0.7-4.9,0.6c-60.6-1.2-120.6-8.6-180.5-16.2c-38.6-4.9-77.3-9.5-116.1-13.5c-79.9-8.2-160.1-12.3-240.4-14.8
		c-4.1-0.1-8,0-11,3.4c-4.7,5.3-3.8,13,2.4,17.4c2.1,1.5,3,3,3,5.6c-0.2,22.3-1.2,44.6-3.6,66.7c-0.8,0.4-1.4,0.2-1.9-0.2
		c-36.3-28.2-77-48.7-118.4-68.1c-7.8-3.7-15.6-7.5-23.5-10.9c-3.3-1.4-3.6-2.6-1.4-5.6c23.9-32.9,49.2-64.6,75.9-95.4
		c18.9-21.8,38.3-43,58.1-64c0.6-0.6,0.9-1.4,2.5-1.6c0.2,3,0.6,6,0.7,9.1c1.1,26.5,2.9,52.9,2,79.4c-0.2,6.7,2.6,10,9.2,11.7
		c1.4,0.4,2.9,0.4,4,1.7c3.1,3.9,7.4,3.9,11.8,3.3c51.9-6.2,101.6-20.8,150.4-39.1c52.1-19.5,102.6-42.7,153.9-64.1
		c44.9-18.7,90.2-36.1,137.5-47.9c31.7-7.9,63.9-13.1,96.6-14.4C802.2,97.2,805.2,97.3,809.3,97.3z"/>
</g>
</svg>
